<?xml version="1.0" encoding="utf-8"?>
<!-- Generator: Adobe Illustrator 23.0.3, SVG Export Plug-In . SVG Version: 6.00 Build 0)  -->
<svg version="1.1" id="Layer_1" xmlns="http://www.w3.org/2000/svg" xmlns:xlink="http://www.w3.org/1999/xlink" x="0px" y="0px"
	 viewBox="0 0 1200 1200" enable-background="new 0 0 1200 1200" xml:space="preserve">
<g>
	<path fill="#559143" d="M232.487,1033.015c-10.349,29.986-19.971,60.267-31.42,89.808c-4.326,11.161-3.575,18.651,5.179,25.638
		c3.429,0.513,6.859,1.026,10.288,1.539c15.642-47.686,38.261-91.938,63.559-134.825c13.346-22.627,27.86-44.442,44.247-64.928
		c2.717-3.397,6.931-6.675,6.288-12.207c0.783-26.533,16.622-43.176,42.526-44.722c11.688-8.026,24.665-13.41,37.225-19.649
		c7.469-22.061,24.018-36.634,42.153-47.739c7.599-4.653,12.526-8.378,14.767-16.549c-2.456,0.047-5.304-3.585-7.035-0.95
		c-5.707,8.685-17.231,9.566-22.464,18.913c-2.501,4.467-4.678,3.322-4.543-1.77c-4.248,8.417-12.761,10.488-20.195,12.825
		c-7.394,2.324-18.624-1.779-13.948,13.58c0.321,1.055-3.234,4.545-5.402,5.098c-10.438,2.66-16.939,15.469-29.521,12.355
		c-3.766-0.932-3.949,2.934-5.101,4.789c-7.783,12.525-22.387,16.849-31.153,28.106c-16.832,14.235-23.939,36.35-39.379,51.739
		c-0.691,0.689-0.559,2.567-0.386,3.824c1.491,10.789-5.458,12.484-13.274,13.291c-0.831,9.55-4.648,15.637-15.152,13.963
		c1.108,16.768-11.447,27.852-16.934,41.883C241.396,1030.648,237.703,1034.336,232.487,1033.015z"/>
	<path fill="#3A80DC" d="M828.088,50c-38.027,36.699-66.669,81.023-95.265,125.298c-26.445,40.945-52.17,82.381-78.212,123.601
		c5.912,2.317,10.49-4.762,16.045-2.905c8.594,2.873,11.482-1.166,10.302-8.989c-0.927-6.152,1.826-6.405,6.451-8.475
		c10.686-4.783,22.603-12.388,22.19-24.941c-0.355-10.8,4.646-4.313,7.416-5.285c2.297-5.149,4.594-10.299,6.89-15.448
		c2.216-11.692,8.187-21.488,14.626-31.134c30.489-45.677,64.785-88.747,89.604-138.31c0.841-4.342,1.683-8.684,2.524-13.027
		C829.803,50.256,828.946,50.128,828.088,50z"/>
	<path fill="#45813C" d="M467.299,809.381c-2.241,8.172-7.169,11.897-14.767,16.549c-18.135,11.105-34.685,25.679-42.153,47.739
		c47.376-12.391,95.775-18.603,143.839-26.843c39.713-6.808,79.512-13.111,119.101-20.651c32.268-6.146,61.018-21.381,87.971-40.562
		c40.172-28.587,80.281-57.274,120.751-85.4c36.13-25.11,73.244-48.714,107.598-76.504c-3.495-7.501-9.443-7.577-14.859-3.499
		c-7.613,5.734-17.035,8.062-23.943,15.147c-5.343,5.479-11.093,11.968-17.824,14.251c-11.812,4.007-19.272,13.934-29.499,19.516
		c-11.454,6.252-20.016,20.869-36.125,15.165c-5.853,6.037-13.335,9.372-20.461,13.296c-5.235,8.032-13.479,13.086-20.113,19.456
		c-13.751,13.205-30.161,24.271-47.706,31.051c-6.134,2.37-15.406,0.622-22.798,3.791c-13.579,5.822-26.969,11.125-42.001,12.803
		c-10.975,1.225-23.471,1.784-31.832,13.01c-2.285,3.068-8.28,0.31-12.313-0.929c-3.773-1.159-5.274-3.909-3.51-8.333
		c2.451-6.146-0.667-6.547-6.075-7.733c-8.693-1.907-16.69,0.261-24.756,1.838c-4.381,0.856-9.46,7.442-12.194,6.312
		c-10.982-4.542-21.273,9.025-31.847,0.723c-0.689-0.541-2.519,0.249-3.739,0.669c-16.418,5.655-32.785,11.475-49.243,17.001
		c-12.14,4.077-25.409,8.158-37.038,8.503c-10.96,0.326-14.03,1.824-17.478,11.39c-1.016,2.818-7.793,15.761-14.566,2.348
		C468.914,809.43,468.107,809.395,467.299,809.381z"/>
	<path fill="#E84E69" d="M327.936,902.327c8.766-11.257,23.37-15.581,31.153-28.106c1.153-1.855,1.335-5.721,5.101-4.789
		c12.582,3.114,19.083-9.695,29.521-12.355c2.168-0.552,5.723-4.043,5.402-5.098c-4.675-15.359,6.555-11.256,13.948-13.58
		c7.434-2.337,15.947-4.408,20.195-12.82c0.179-1.437,0.358-2.878,0.538-4.324c-3.023-13.728,0.892-26.385,6.514-38.528
		c27.727-59.886,75.558-95.392,134.202-117.422c48.352-18.164,98.777-26.185,149.416-32.716
		c34.179-4.408,68.454-7.951,102.687-11.881l0.044,0.176c0.441-1.703,1.616-2.173,3.158-2.026
		c16.392,1.158,31.652-5.669,47.597-7.669c14.329-2.509,28.86-4.132,42.275-10.662c-5.932-3.679-11.879-0.539-17.667,0.46
		c-65.346,11.275-131.06,19.273-196.935,25.856c-2.509,0.251-5.098-0.433-7.65-0.683c-13.066,5.768-27.196,4.712-40.774,7.201
		c-28.098,3.597-56.104,7.781-83.695,14.654c-3.342,1.852-6.886,2.442-10.608,1.927c-6.956,4.047-14.504,6.124-22.305,7.354
		c-1.792,0.672-3.585,1.344-5.377,2.016c-15.899,6.728-31.798,13.457-47.697,20.185c-3.945,4.759-9.472,6.534-14.884,8.527
		c-57.89,39.544-94.187,97.99-129.52,157.292c-5.906,9.912-12.021,19.693-18.031,29.524
		C325.682,883.997,326.809,893.162,327.936,902.327z"/>
	<path fill="#F08A23" d="M828.136,63.411c-24.819,49.563-59.115,92.633-89.604,138.31c-6.439,9.647-12.411,19.442-14.626,31.134
		c7.619-0.26,21.263,14.224,20.011,21.421c-0.178,1.021-1.425,2.481-2.351,2.648c-8.912,1.609-5.82,11.335-5.44,13.899
		c2.436,16.448-8.674,30.796-6.154,46.948c0.268,1.715-1.333,4.866-2.854,5.614c-10.71,5.267-10.442,14.477-8.509,24.049
		c1.422,7.046,0.388,11.577-7.717,11.471c-0.145,0.884-0.279,1.769-0.403,2.655c2.537,5.806,3.952,11.198-4.582,12.912
		c-0.273,1.76-0.547,3.52-0.82,5.281c-2.417,11.327-7.084,21.666-13.17,31.378c-2.252,3.593,0.235,12.004-8.541,8.984
		c-0.26,1.755-0.52,3.511-0.78,5.266c3.646,0.925,5.815,3.785,3.394,6.757c-6.12,7.515-3.586,18.134-9.68,25.562
		c-2.579,3.144-2.031,6.744,1.269,9.355c1.908,1.51,5.059,1.756,5.662-0.338c3.276-11.378,13.78-16.257,20.061-24.794
		c8.088-10.992,10.827-25.285,21.083-35.237c10.482-10.171,19.478-21.997,30.103-31.985c5.872-5.52,6.738-0.244,5.83,5.057
		c0.879,0.157,1.758,0.313,2.637,0.47c0,0-0.183,0.084-0.183,0.084c-1.339-9.297,3.61-17.295,5.452-25.92
		c6.641-31.097,11.975-62.347,12.901-94.177c1.434-49.287,17.146-94.493,37.33-138.567c7.828-17.094,13.009-35.119,14.797-54.003
		C833.621,63.751,835.127,58.029,828.136,63.411z"/>
	<path fill="#F46517" d="M856.625,402.329c3.209-15.241,16.674-23.062,24.253-35.224c6.391-10.255,14.893-19.118,22.459-28.596
		c0.317-5.264-3.354-5.755-7.026-6.245c-5.113,9.322-16.539,11.853-21.499,21.339c-7.934,11.831-8.889,30.446-28.347,31.076
		c-0.121,0.871-0.263,1.739-0.427,2.603c0.271,0.176,0.595,0.306,0.795,0.545c0.124,0.148,0.06,0.464,0.08,0.704
		c-0.3-0.41-0.6-0.82-0.9-1.23c-0.818-0.099-1.638-0.181-2.459-0.246c-1.585,14.081-14.322,21.086-20.531,32.659
		c-11.959,22.289-28.838,20.873-45.898,1.516c-1.815-2.059-4.102-4.809-6.386-2.641c-8.636,8.2-18.191-0.301-26.998,2.459
		c-4.402,9.189-8.867,18.347-13.197,27.571c-26.129,55.656-58.623,107.447-91.447,159.039c-2.564,4.03-7.279,8.282-2.973,12.928
		c4.294,4.633,9.655,0.705,14.198-1.324c1.785-0.797,2.886-3.261,4.298-4.965c2.048-2.802,3.839-5.861,6.184-8.368
		c27.733-29.658,55.305-59.482,83.425-88.744c19.531-20.325,39.845-39.849,59.811-59.735c7.794-8.119,14.546-17.334,23.739-23.967
		c5.086-8.635,12.976-14.458,19.942-21.207c-0.074-2.548-0.284-5.187,3.329-5.272l-0.161,0.151c0.815-3.153,0.273-8.074,5.949-4.897
		L856.625,402.329z"/>
	<path fill="#114D9F" d="M804.037,457.453c-19.964,19.882-40.278,39.406-59.809,59.731c-28.12,29.263-55.692,59.087-83.425,88.744
		c-2.344,2.507-4.136,5.565-6.186,8.365c1.573,0.192,3.147,0.387,4.722,0.581c3.166-2.256,6.287-4.585,9.506-6.757
		c36.012-24.297,72.039-48.571,108.062-72.85c-0.026-1.959,0.992-2.871,2.807-2.983l-0.243,0.196
		c1.073-0.822,2.145-1.644,3.218-2.467l-0.247,0.189c1.072-0.819,2.144-1.638,3.216-2.457l-0.241,0.162
		c1.409-2.085,2.517-5.013,5.67-2.207l-0.221,0.131c9.277-13.655,23.668-20.88,36.009-30.683
		c26.445-23.151,52.897-46.293,79.314-69.479c1.292-1.134,2.271-2.652,3.395-3.99c-10.508-3.273-28.713,7.886-35.168,21.555
		c0.164,0.381,0.327,0.761,0.49,1.142c-0.138-0.4-0.277-0.8-0.416-1.2c-1.276,0.172-2.813-0.077-3.788,0.577
		c-20.128,13.505-40.444,25.78-65.38,13.822C804.956,457.4,804.469,457.488,804.037,457.453z"/>
	<path fill="#3A80DC" d="M847.721,412.275c-6.966,6.75-14.856,12.573-19.939,21.206c18.141,2.604,34.887,0.265,48.199-14.673
		c13.823-15.511,30.79-28.009,48.337-36.907c20.256-10.272,35.709-24.61,51.562-40.102c7.54-7.368,14.029-21.869,29.214-15.014
		c10.06-6.213,16.555-15.983,26.635-28.072c-11.974,5.746-20.427,9.906-28.96,13.879c-38.631,17.985-78.533,33.498-111.468,62.482
		c-11.07,9.742-20.994,21.07-34.675,27.256c-0.001,0,0.213-0.072,0.212-0.072c-0.452,3.627-0.984,7.148-5.949,4.897
		c0,0,0.161-0.151,0.161-0.152C853.021,410.818,849.631,411.053,847.721,412.275z"/>
	<path fill="#7FB762" d="M919.688,600.528c-13.415,6.53-27.946,8.153-42.268,10.666c1.607,19.564,2.988,21.253,19.361,23.347
		c2.661,0.34,5.465,0.7,5.745,4.057c0.876,10.507,4.318,7.08,8.902,2.071c3.931-4.295,8.577-9.526,12.327,0.323
		c0.432,0.004,1.078,0.203,1.265-0.015c15.332-17.879,39.046-23.426,55.117-40.224c0.808-0.844,2.356-1.873,3.191-1.609
		c12.296,3.886,21.149-6.792,29.578-11.278c11.68-6.217,20.502-5.446,31.079-2.161c13.877-6.269,25.812-15.654,37.801-25.178
		c-7.95-3.056-7.998-3.231-15.053-1.091c-34.326,10.411-68.537,21.258-102.975,31.239
		C949.306,594.865,934.392,597.297,919.688,600.528z"/>
	<path fill="#2A6DC7" d="M1005.094,326.784c-15.185-6.855-21.674,7.646-29.214,15.014c-15.853,15.492-31.306,29.831-51.562,40.102
		c-17.547,8.898-34.514,21.396-48.337,36.907c-13.312,14.937-30.058,17.277-48.199,14.673c-9.197,6.635-15.949,15.85-23.743,23.969
		c0.43,0.039,0.918-0.049,1.285,0.127c24.936,11.959,45.251-0.316,65.38-13.822c0.975-0.654,2.512-0.405,3.788-0.577l-0.075,0.058
		c6.455-13.67,24.66-24.828,35.168-21.556C943.741,392.541,975.945,361.305,1005.094,326.784z"/>
	<path fill="#FBAC38" d="M960.282,261.28c13.017-17.608,26.033-35.217,39.05-52.825c-0.449-0.383-0.898-0.765-1.347-1.148
		c-45.85,34.461-91.7,68.922-137.55,103.383c-0.268,3.399,7.757,4.65,2.283,9.34c-14.454,12.383-15.245,31.262-21.647,47.472
		c2.481,1.328,4.961,2.656,7.442,3.985c7.051,0.837,4.674-7.923,9.207-9.648c1.344-7.365-1.433-15.391,10.435-18.894
		c5.613-1.657,15.384-9.869,17.044-15.784c3.908-13.924,26.518-16.553,19.477-35.781c-0.035-0.094,0.698-0.735,1.028-0.7
		c10.897,1.132,15.759-10.946,25.042-12.61c9.946-1.783,16.445-7.578,20.691-16.25C954.608,255.345,957.065,255.845,960.282,261.28z
		"/>
	<path fill="#F08A23" d="M776.907,535.268c-36.023,24.28-72.05,48.553-108.062,72.85c-3.219,2.172-6.339,4.501-9.505,6.757
		c-0.892,6.161-1.784,12.323-2.677,18.484c13.578-2.485,27.708-1.429,40.773-7.198c14.975-13.428,29.791-27.051,44.957-40.243
		c28.519-24.809,57.102-49.531,83.581-76.712c-4.907-1.589-7.713,2.794-11.487,4.42c-8.141,3.507-14.319,11.13-23.621,12.206
		c0,0,0.221-0.131,0.221-0.131c-1.259,2.506-2.398,5.347-5.67,2.207c0,0,0.241-0.162,0.241-0.162
		c0.652,3.241-0.955,3.309-3.216,2.457c0,0,0.247-0.189,0.247-0.189c0.315,2.766-1.223,2.936-3.218,2.467
		c0,0,0.243-0.196,0.244-0.196C779.953,534.456,778.427,534.859,776.907,535.268z"/>
	<path fill="#F08A23" d="M743.74,421.048c8.806-2.76,18.362,5.742,26.998-2.459c2.284-2.168,4.571,0.582,6.386,2.641
		c17.06,19.357,33.939,20.773,45.898-1.516c6.21-11.573,18.946-18.578,20.53-32.661c-7.911-2.306-10.001,8.668-17.129,8.147
		c-2.107,3.694-7.028,11.813-8.003,7.22c-2.093-9.858-11.57-12.431-13.774-20.734c-2.312-8.711-7.622-13.635-16.518-14.138
		c-1.771,0.945-3.542,1.891-5.313,2.836c-1.423,8.6-6.395,12.001-14.581,10.691c-1.839-0.125-4.106,2.807-5.464-0.76
		c0-0.001,0.183-0.085,0.184-0.085c2.909,2.357-0.392,3.766-0.855,5.608c0.1,6.712-3.367,8.015-8.843,6.27
		C751.6,402.272,744.42,410.549,743.74,421.048z"/>
	<path fill="#559143" d="M1043.986,585.706c-10.577-3.285-19.399-4.056-31.079,2.161c-8.429,4.487-17.282,15.165-29.578,11.278
		c-0.835-0.264-2.383,0.765-3.191,1.609c-16.071,16.797-39.785,22.345-55.117,40.224c-0.188,0.219-0.833,0.019-1.265,0.015
		c-19.116,9.994-30.553,31.987-53.218,36.566c-2.815,0.569-2.718,4.151-3.149,6.731c16.109,5.704,24.671-8.913,36.125-15.165
		c10.227-5.582,17.687-15.508,29.499-19.516c6.731-2.284,12.482-8.772,17.824-14.251c6.908-7.085,16.33-9.414,23.943-15.147
		c5.416-4.079,11.364-4.002,14.859,3.499C1008.881,612.775,1027.737,601.246,1043.986,585.706z"/>
	<path fill="#F4982C" d="M788.129,367.548c8.896,0.503,14.205,5.427,16.518,14.138c2.204,8.303,11.68,10.876,13.774,20.734
		c0.975,4.592,5.896-3.527,8.003-7.22c-4.51-12.491-2.967-22.023,11.64-25.367c1.11-0.254,2.01-1.531,3.008-2.333
		c6.402-16.211,7.193-35.089,21.647-47.472c5.475-4.69-2.551-5.941-2.283-9.34C835.742,328.835,810.25,345.891,788.129,367.548z"/>
	<path fill="#F69E30" d="M960.282,261.28c-3.217-5.435-5.675-5.935-8.844,0.538c-4.246,8.672-10.745,14.467-20.691,16.25
		c-9.284,1.664-14.145,13.742-25.042,12.61c-0.33-0.034-1.063,0.606-1.028,0.7c7.041,19.229-15.57,21.857-19.477,35.781
		c-1.66,5.915-11.43,14.127-17.044,15.784c-11.869,3.503-9.091,11.529-10.435,18.894c6.841-0.169,7.646-13.935,17.093-8.233
		c4.959-9.488,16.385-12.018,21.498-21.341c10.256-10.005,14.948-26.963,32.501-27.845
		C940.238,290.763,951.108,276.677,960.282,261.28z"/>
	<path fill="#45813C" d="M373.154,893.319c-25.904,1.546-41.743,18.189-42.526,44.722c14.268-9.959,22.373-26.249,35.763-37.145
		C368.969,898.798,370.916,895.867,373.154,893.319z"/>
	<path fill="#F4982C" d="M928.812,304.418c-17.553,0.882-22.245,17.841-32.501,27.845c3.672,0.49,7.344,0.982,7.026,6.246
		C911.83,327.145,920.321,315.781,928.812,304.418z"/>
	<path fill="#F4982C" d="M768.235,381.075c8.186,1.31,13.157-2.092,14.581-10.691C776.915,372.423,772.436,376.546,768.235,381.075z
		"/>
	<path fill="#F08A23" d="M502.867,308.515c-36.877-79.813-73.754-159.626-110.631-239.439c-1.18,0.242-2.359,0.483-3.539,0.725
		c-4.375,39.54,0.163,79.076,1.037,118.613c8.08-0.242,10.751-5.47,12.137-12.854c1.18-6.287-0.29-12.356,0.136-18.49
		c0.479-6.898,4.879-12.84,10.697-13.116c7.489-0.356,4.613,7.171,5.299,12.165c1.333,9.71,0.725,19.654,7.223,28.577
		c5.837,8.014,8.52,18.235,4.996,28.86l0,0.001c11.907,8.618,18.17,22.472,25.336,34.32c8.684,14.355,8.362,34.338,25.403,44.016
		c3.681,2.09,2.328,6.293,1.808,9.772c-1.417,9.475-5.243,21.737-2.636,28.044c7.567,18.312,4.488,38.224,11.114,56.171
		c4.707,2.159,2.553,9.247,6.108,10.94c10.678,5.084,8.926,13.706,7.272,22.677c-0.657,3.564,0.781,6.748,1.38,10.109
		c1.967,11.033,11.48,19.007,10.88,30.849c6.768,3.823,6.48,11.07,7.836,17.519c-0.258,1.77-0.515,3.54-0.773,5.31
		c14.81,13.481,6.273,34.17,15.525,49.742c4.294-0.691,5.188-5.864,4.598-9.791c-1.705-11.35,5.1-17.71,11.855-24.377
		c4.327-23.009-15.738-45.383-1.018-68.664c-9.105-9.226,1.202-20.161-2.145-30.047c-1.175-3.47,3.571-6.569,1.561-11.283
		c-4.246-9.956,2.633-14.111,9.522-19.51c5.639-4.419,19.256-7.437,9.128-20.194c-12.14,4.358-9.195-12.539-17.693-13.314
		c7.367-2.925,2.675-6.919,2.05-11.628c-0.881-6.638-6.877-10.135-7.093-16.533c1.909-5.428-1.375-9.57-3.142-14.087
		c-5.521-0.497-9.558-3.322-12.704-7.974c-1.933-2.858-5.042-3.229-8.122-2.174c-3.306,1.133-5.262,3.984-4.283,7.254
		c5.441,18.167-3.698,37.49,3.879,55.576c1.508,3.6,3.206,8.475-0.993,13.797C517.375,342.5,510.121,325.507,502.867,308.515z"/>
	<path fill="#F69E30" d="M516.887,460.454c0.601-11.842-8.913-19.816-10.88-30.849c-0.599-3.36-2.037-6.545-1.38-10.109
		c1.654-8.971,3.406-17.593-7.272-22.677c-3.555-1.693-1.401-8.781-6.109-10.94c-5.187-0.107-8.579-3.165-8.371-8.152
		c0.807-19.348-14.219-35.773-8.945-55.892c0.241-0.918-0.864-3.106-1.618-3.251c-13.691-2.634-8.788-15.522-12.101-23.785
		c-0.749-1.869,0.198-4.633-2.348-5.553c-3.406-1.231-4.522,1.322-5.386,3.997c-0.916,2.84-2.621,5.3-5.564,3.501
		c-3.746-2.291-1.628-5.221,0.371-7.758c6.296-7.987,5.966-14.066-0.445-23.259c-10.48-15.027-14.958-33.406-16.618-52.171
		c0,0,0-0.001,0-0.001c-4.434-0.934-6.357-3.676-6.635-8.422c-0.757-12.912-7.912-17.582-22.494-15.763
		c6.688,7.379,2.136,15.375,3.848,22.126c2.054,8.102-6.621,11.371-5.186,18.351c2.413,11.732-1.045,23.984,2.427,35.653
		c1.629,5.475-1.687,6.015-5.587,5.974c2.462,39.388,9.397,78.08,16.133,116.793c0.616,3.543,1.557,6.863,0.45,10.416
		c0,0.002-0.175-0.09-0.175-0.09c2.81,0.936,3.869,3.164,4.113,5.992c0.826,1.058,1.652,2.117,2.478,3.175
		c0.723,1.031,1.445,2.062,2.168,3.093l0.003,0.004c0.722,1.032,1.445,2.064,2.168,3.095c-0.118,0.833-0.241,1.666-0.368,2.499
		c1.597,1.229,1.45,2.199-0.434,2.909c-0.119,0.81-0.242,1.62-0.37,2.429c4.816,7.804,9.315,15.698,6.685,25.643
		c-0.117,0.829-0.239,1.657-0.365,2.484c1.307,2.957,2.614,5.913,3.922,8.87c8.206,4.413,11.283,10.9,7.479,20.169
		c-0.797,6.593-2.768,13.591,5.37,17.11c8.669-9.486,7.295-20.016,2.407-30.239c-11.437-23.917-20.34-49.342-24.641-75.077
		c-2.299-13.753-0.361-29.465-2.298-44.43c-1.073-8.289-0.228-17.63-3.617-24.801c-4.7-9.941-5.832-20.374-7.36-30.693
		c-1.742-11.77-3.622-24.587,1.295-35.556c3.306-7.377,10.219-12.789,5.699-22.084c-0.339-0.698,0.656-2.777,1.534-3.294
		c1.712-1.009,3.456-0.076,4.205,1.691c3.609,8.509,10.098,17.066,10.052,25.631c-0.151,27.982,9.83,53.292,15.878,79.629
		c1.614,7.03,4.278,13.047,2.95,21.399c-1.296,8.146-3.177,17.847,0.375,26.348c1.817,4.348,7.407,8.29,7.082,12.072
		c-1.211,14.072,1.844,27.004,6.095,39.948c0.941,2.865,2.183,6.142,0.243,9.077c-3.34,5.054-1.458,9.704,1.231,13.683
		c5.694,8.422,9.922,17.331,13.524,27.001c2.038,5.47,2.745,12.914,6.671,16.404c14.442,12.838,20.144,30.765,25.612,48.018
		c2.893,9.127,7.695,13.125,14.487,13.93c6.396,0.759,13.004-4.668,20.124-2.286c4.008-12.606,18.079-20.05,17.169-35.18
		c-2.244,3.453-4.483,6.909-6.736,10.356c-0.684,1.046-1.628,2.04-2.379,0.322c-0.469-1.071-0.198-2.494-0.258-3.759
		c-1.583,2.625-2.781,5.641-4.827,7.798c-4.964,5.235-11.02,8.537-18.189,6.077c-6.482-2.224-12.028-6.293-10.303-14.566
		c3.211-15.402,3.87-30.63-0.153-45.881c-0.513-1.944,0.57-3.373,2.227-4.319c0.258-1.77,0.515-3.54,0.774-5.311
		C515.813,475.191,515.215,468.374,516.887,460.454z"/>
	<path fill="#F08A23" d="M349.154,457.628c-6.06,0.79-9.305-4.048-13.266-7.208c-33.479-26.702-68.446-51.123-105.833-71.645
		c-21.417-11.756-43.253-22.762-65.268-33.298c-16.358-7.828-32.178-16.317-46.573-28.43c7.009,28.764,19.105,54.597,35.796,78.173
		c13.253,2.299,27.683,7.33,28.776-15.473c0.144-2.994,3.426-7.462,7.447-5.509c8.679,4.215,17.992,5.62,26.067,13.124
		c13.281,12.342,24.967,27.513,43.372,33.488c7.35,2.386,18.724,2.935,15.301,16.945c-0.315,1.288,2.258,4.574,3.855,4.859
		c8.783,1.563,13.776,6.073,15.625,15.501c0.621,3.169,5.944,4.381,9.559,5.993c8.146,3.633,15.987,10.209,19.305,17.407
		c6.325,13.72,16.16,23.121,28.71,27.074c18.432,5.806,28.617,17.69,33.982,35.634c2.105,0.375,3.961,1.118,4.761,3.419
		c16.522-1.525,21.218,15.593,32.361,22.706c6.214,3.966,16.174,2.523,18.628,9.776c5.251,15.525,22.229,17.364,29.923,29.752
		c1.947,3.134,7.353,4.175,10.574,1.222c4.022-3.686,2.224-8.366-0.928-11.827c-3.618-3.973-7.602-7.938-6.581-13.76
		c1.724-9.822-3.12-12.925-11.288-13.436c-3.352,8.289-7.102,4.31-10.269,0.185c-27.286-35.533-58.853-66.702-91.834-96.432
		C355.763,470.828,349.909,466.094,349.154,457.628z"/>
	<path fill="#F9A634" d="M390.769,547.682c-0.8-2.301-2.656-3.044-4.76-3.419c-6.467-1.9-15.04,4.772-19.431-2.385
		c-4.079-6.65-10.452-8.356-15.324-12.574c-4.958-4.291-11.706-2.198-15.988-8.79c-12.242-18.849-31.463-29.393-50.101-40.316
		c-3.328-0.582-4.783-2.606-4.362-6.077l-0.004-0.004c-6.502-5.088-15.758-6.851-18.582-16.376
		c-0.853-0.133-1.706-0.266-2.558-0.401c-4.251-0.674-8.681-0.772-11.556-4.962c-2.898-4.223-6.065-7.708-11.794-4.144
		c-5.651,3.514-9.547,8.051-8.668,15.221c0.604,4.929,3.52,8.582,6.312,12.67c5.114,7.489,16.699,11.133,14.133,23.551
		c0,0,0.995-0.009,1-0.01c4.561,0.366,9.415,0.393,8.037,7.515c5.438,8.146,15.103,11.042,21.308,18.235
		c6.805-5.876-0.273-11.282-0.352-16.924c-0.092-6.49-8.06-13.426-6.016-16.126c5.571-7.359,8.379,6.047,14.482,4.379
		c1.188-0.324,2.717,0.555,3.828,0.132c6.534-2.486,12.101,1.169,14.712,5.544c10.346,17.332,29.66,22.785,43.144,35.979
		c6.722,6.578,14.697,12.301,24.245,16.228c13.474,5.542,24.205,16.477,31.145,30.382c9.856,4.514,17.694,11.548,24.812,19.834
		c2.418,2.815,3.769,5.282,1.904,8.042c-3.006,4.448-4.736-0.409-7.123-1.52c-7.524-3.501-9.55-13.98-18.628-15.377
		c-3.567,10.509-10.647,7.706-16.616,3.907c-12.348-7.859-24.501-16.135-36.083-25.13c-5.831-4.529-8.187-2.939-10.295,3.039
		c25.95,24.846,52.722,48.678,81.384,70.18c3.167-3.634,5.842-1.216,9.083,0.189c9.443,4.096,18.48,8.482,27.343,14.135
		c9.056,5.777,18.336,11.533,27.58,17.188c15.899-6.728,31.798-13.457,47.695-20.188c-2.627-6.024-8.328-9.603-12.166-14.577
		c-7.734-10.026-10.791-23.171-20.594-31.462c-11.029,4.134-6.823,9.009-0.567,13.566c2.548,1.856,3.258,3.95,2.478,6.773
		c-0.676,2.447-2.775,4.278-4.802,3.084c-9.13-5.376-20.114-4.505-29.025-12.633c-17.121-15.617-32.302-33.474-52.136-46.311
		c-8.605-5.57-13.89-16.722-25.015-20.422C389.295,556.146,390.23,551.252,390.769,547.682z"/>
	<path fill="#F46517" d="M572.977,349.16c10.128,12.758-3.489,15.775-9.128,20.194c-6.888,5.398-13.768,9.554-9.522,19.51
		c2.01,4.714-2.736,7.813-1.561,11.283c3.347,9.886-6.96,20.82,2.145,30.047c-14.72,23.28,5.344,45.654,1.017,68.664
		c4.718,4.605-0.572,13.832,7.229,17.017c17.196-39.817,31.866-80.401,38.334-123.733c1.342-8.99,2.608-18.549,8.464-26.28
		c1.6-4.035,3.2-8.071,4.8-12.106c-4.759-33.72-9.519-67.44-14.278-101.16c-6.365-1.51-7.231,2.57-9.233,7.741
		c-4.854,12.541,1.766,28.109-10.147,38.701c-0.81,0.72-0.564,3.602,0.084,5.043c5.345,11.9-5.812,22.897-2.019,34.85
		c0.671,2.114-2.843,4.106-5.462,4.875C573.458,345.59,573.218,347.375,572.977,349.16z"/>
	<path fill="#F4982C" d="M285.165,480.199c18.638,10.923,37.86,21.467,50.101,40.316c4.281,6.592,11.03,4.498,15.988,8.79
		c4.872,4.217,11.245,5.924,15.324,12.574c4.391,7.157,12.964,0.486,19.431,2.385c-5.366-17.943-15.55-29.828-33.983-35.634
		c-12.55-3.953-22.385-13.354-28.71-27.074c-3.318-7.198-11.159-13.774-19.305-17.407c-3.615-1.612-8.938-2.824-9.559-5.993
		c-1.849-9.428-6.842-13.938-15.625-15.501c-1.597-0.284-4.17-3.57-3.855-4.859c3.423-14.01-7.952-14.558-15.301-16.945
		c-18.404-5.976-30.091-21.147-43.372-33.488c-8.075-7.504-17.388-8.909-26.067-13.124c-4.021-1.953-7.303,2.515-7.447,5.509
		c-1.093,22.803-15.523,17.772-28.776,15.473c15.294,27.413,38.314,47.876,59.113,70.338c1.468,1.586,2.757,3.349,4.13,5.029
		c8.168-7.87-0.301-12.639-3.596-17.485c-4.107-6.041-9.809-10.932-14.918-16.22c-1.893-1.959-3.615-3.979-2.847-6.904
		c0.89-3.388,4.105-2.148,6.208-3.139c12.587-5.928,23.375,1.303,32.846,6.521c9.672,5.329,22.132,9.913,24.714,23.98
		c0.853,0.135,1.705,0.268,2.559,0.401c8.387,2.812,18.07,4.06,18.582,16.377c0,0,0.004,0.004,0.004,0.004
		C284.144,474.693,285.586,476.728,285.165,480.199z"/>
	<path fill="#FBAC38" d="M547.1,293.597c1.767,4.518,5.051,8.66,3.142,14.087c9.549,1.523,9.974-5.366,10.972-12.241
		c1.499-10.32-5.737-21.268,2.727-31.243c1.399-1.648-1.887-3.34-3.944-4.03c-0.829,2.346-1.378,5.326-4.804,3.336
		c-0.708-0.412-0.758-2.018-1.111-3.074c1.969-0.092,3.937-0.183,5.906-0.275c1.743-7.643-0.111-14.925-2.013-22.161
		c-0.931-3.542-1.949-6.676,2.099-9.186c12.111-7.508,17.09-24.228,32.726-27.246c-5.009-41.36-10.017-82.72-15.026-124.079
		c-22.206,58.402-42.648,116.735-58.595,176.585c4.244,0.175,8.616,1.114,12.703,0.345c5.993-1.127,7.713,2.228,8.695,6.928
		C542.82,272.078,544.934,282.844,547.1,293.597z"/>
	<path fill="#F46517" d="M349.154,457.628c0.755,8.465,6.609,13.2,12.202,18.241c32.982,29.73,64.549,60.899,91.834,96.432
		c3.168,4.125,6.917,8.104,10.268-0.185c-3.19-18.632-10.809-35.844-15.72-53.925c-14.477,0.752-20.1-12.025-23.535-21.459
		c-3.958-10.874-5.271-21.437-16.598-27.67c-6.333-3.485-17.073-3.6-16.067-16.052c0.141-1.746-4.673-3.567-6.676-5.84
		c-4.206-4.771-9.489-7.994-13.508-13.522c-6.087-8.37-12.484-17.23-21.844-22.995c-6.824-4.203-11.701-5.78-15.138,3.44
		C338.129,429.04,347.859,441.768,349.154,457.628z"/>
	<path fill="#FBAC38" d="M403.618,585.012c-6.94-13.905-17.671-24.84-31.145-30.382c-9.548-3.927-17.523-9.65-24.245-16.228
		c-13.484-13.194-32.799-18.647-43.144-35.979c-2.611-4.375-8.178-8.03-14.712-5.544c-1.111,0.423-2.641-0.457-3.828-0.132
		c-6.103,1.667-8.911-11.738-14.482-4.379c-2.044,2.7,5.924,9.636,6.016,16.126c0.08,5.642,7.158,11.049,0.352,16.924
		c20.966,17.576,40.581,36.882,63.161,52.39c2.108-5.978,4.464-7.568,10.295-3.039c11.582,8.995,23.735,17.271,36.083,25.13
		c5.969,3.799,13.048,6.602,16.616-3.907C390.334,593.779,405.09,588.552,403.618,585.012z"/>
	<path fill="#FBAC38" d="M381.587,365.809c-35.084-47.846-73.664-92.62-112.598-137.081c-0.46-0.526-1.516-0.494-5.322-1.612
		c12.357,24.918,16.21,50.828,26.424,74.522c1.968,0.214,3.934,0.427,5.901,0.641c1.14-1.671,1.99-1.574,2.529,0.417
		c4.42,2.886,6.23,7.783,8.721,12.155c5.583,0.572,9.763,2.578,9.118,9.517c4.11,4.26-2.036,6.97-1.612,10.673
		c5.191,1.002,10.686,1.853,3.957,8.721c2.64,5.833,5.28,11.666,7.921,17.498c0.853,0.137,1.706,0.271,2.559,0.401
		c6.975-3.958,13.749-1.642,13.296,5.167c-0.401,6.03,3.225,8.046,6.438,6.525C359.426,368.379,370.9,369.157,381.587,365.809z"/>
	<path fill="#F4982C" d="M329.187,361.662c-0.854-0.13-1.707-0.264-2.56-0.401c-4.165-0.618-8.33-1.236-12.495-1.854
		c-0.407,10.623,4.442,18.847,11.04,26.271c8.903,4.692,21.699,4.171,26.542,13.418c3.987,7.611,9.212,10.928,15.613,14.323
		c7.026,3.726,16.756,5.601,19.432,13.369c7.931,23.025,14.476,28.852,35.623,27.755c3.54-0.184,5.854-0.901,6.698-4.628
		c0.126-0.827,0.248-1.655,0.365-2.485c-6.708-7.259-8.399-15.961-6.685-25.643c0.128-0.809,0.251-1.619,0.37-2.43
		c0.145-0.97,0.289-1.939,0.434-2.907c0.127-0.832,0.249-1.665,0.368-2.499c-0.723-1.032-1.445-2.063-2.168-3.095
		c0,0-0.003-0.004-0.003-0.004c-0.723-1.031-1.445-2.062-2.168-3.093c-0.826-1.058-1.652-2.117-2.479-3.175
		c-3.631-0.331-6.846-0.969-4.113-5.993c0,0,0.175,0.092,0.175,0.09c-2.269,3.098-3.828-0.154-5.698-0.624
		c-2.254,0.465-3.639,5.085-6.222,2.39c-2.697-2.813-0.183-6.561,0.228-9.895c0.037-0.854-0.304-1.488-1.023-1.9
		c-3.953-2.256-6.149-0.677-9.633,2.441c-14.184,12.693-31.857,8.867-40.322-8.068c-1.293-2.587-2.279-4.488-5.612-3.982
		C331.674,381.051,330.39,371.358,329.187,361.662z"/>
	<path fill="#2A6DC7" d="M614.754,353.756c-1.6,4.035-3.2,8.071-4.798,12.103c6.639,1.887,10.987-2.64,14.444-6.905
		c8.382-10.343,17.804-18.631,28.378-26.892c13.308-10.397,25.365-12.667,40.026-11.224c8.175-11.617,9.494-26.171,15.794-38.591
		c2.806-11.314,5.612-22.628,8.419-33.943c-2.77,0.972-7.771-5.514-7.416,5.285c0.413,12.553-11.504,20.158-22.19,24.941
		c-4.625,2.07-7.378,2.323-6.451,8.475c1.18,7.823-1.708,11.862-10.302,8.989c-5.555-1.857-10.133,5.222-16.045,2.905
		C641.325,317.185,628.04,335.471,614.754,353.756z"/>
	<path fill="#F69E30" d="M592.799,201.565c-15.635,3.017-20.614,19.738-32.726,27.246c-4.049,2.51-3.03,5.644-2.099,9.186
		c1.902,7.236,3.756,14.518,2.013,22.161l0.01,0.014c2.057,0.69,5.343,2.381,3.944,4.03c-8.464,9.975-1.228,20.922-2.727,31.243
		c-0.998,6.875-1.423,13.764-10.972,12.241c0.216,6.399,6.212,9.895,7.093,16.533c0.625,4.709,5.317,8.703-2.05,11.628
		c8.497,0.775,5.552,17.672,17.693,13.314c0.24-1.785,0.481-3.57,0.722-5.354c-14.123-8.206-5.043-23.237-2.437-29.49
		c7.23-17.346,7.869-35.182,6.103-51.793c-1.345-12.661,7.935-16.068,10.673-24.41c1.487-4.531,7.402-3.057,11.035,0.461
		C597.051,226.225,597.007,213.498,592.799,201.565z"/>
	<path fill="#F08A23" d="M429.081,449.915c-0.844,3.727-3.157,4.444-6.698,4.628c-21.148,1.097-27.692-4.73-35.623-27.755
		c-2.676-7.769-12.406-9.644-19.432-13.369c-6.401-3.394-11.627-6.712-15.613-14.323c-4.844-9.246-17.639-8.725-26.542-13.418
		c1.146,10.154,3.634,19.833,9.202,28.417c3.436-9.221,8.313-7.644,15.137-3.441c9.359,5.765,15.757,14.625,21.844,22.995
		c4.02,5.528,9.303,8.751,13.508,13.522c2.004,2.273,6.817,4.094,6.676,5.84c-1.006,12.452,9.734,12.567,16.067,16.052
		c11.327,6.233,12.639,16.795,16.598,27.67c3.434,9.434,9.057,22.211,23.535,21.458c-0.561-1.928-1.122-3.856-1.684-5.784
		c0.416-2.662,0.832-5.325,1.249-7.987c-0.484-2.786-0.968-5.571-1.452-8.357c-8.139-3.519-6.167-10.517-5.371-17.11
		c-5.814-5.38-6.679-12.762-7.479-20.169C431.695,455.828,430.388,452.871,429.081,449.915z"/>
	<path fill="#7FB762" d="M327.936,902.327c-1.127-9.165-2.254-18.33-3.391-27.485c-36.478,49.177-71.549,99.202-92.058,158.174
		c5.216,1.321,8.909-2.367,10.325-5.989c5.486-14.03,18.042-25.114,16.932-41.883c3.285-6.703,6.362-13.65,15.153-13.962
		c7.816-0.808,14.764-2.502,13.274-13.291c-0.174-1.257-0.305-3.135,0.386-3.824C303.997,938.677,311.104,916.562,327.936,902.327z"
		/>
	<path fill="#F4982C" d="M396.595,271.473c3.9,0.041,7.217-0.499,5.587-5.974c-3.472-11.669-0.014-23.921-2.427-35.653
		c-1.435-6.979,7.24-10.249,5.186-18.351c-1.711-6.751,2.841-14.747-3.848-22.126c14.582-1.818,21.737,2.851,22.494,15.763
		c0.278,4.747,2.201,7.488,6.635,8.422c3.524-10.625,0.84-20.846-4.996-28.86c-6.499-8.923-5.89-18.867-7.223-28.577
		c-0.686-4.994,2.19-12.52-5.299-12.165c-5.819,0.276-10.218,6.218-10.697,13.116c-0.426,6.134,1.044,12.204-0.136,18.49
		c-1.386,7.384-4.057,12.612-12.137,12.854C390.4,216.26,392.294,243.984,396.595,271.473z"/>
	<path fill="#F69E30" d="M547.1,293.597c-2.166-10.753-4.28-21.519-6.523-32.254c-0.982-4.7-2.702-8.054-8.695-6.928
		c-4.087,0.768-8.459-0.17-12.703-0.345c-3.875,14.345-7.621,28.728-11.71,43.009c-1.122,3.918,0.322,9.077-4.601,11.436
		c7.254,16.992,14.508,33.984,22.011,51.561c4.199-5.321,2.501-10.197,0.993-13.797c-7.577-18.086,1.561-37.409-3.879-55.576
		c-0.979-3.27,0.976-6.121,4.283-7.254c3.08-1.055,6.189-0.684,8.122,2.174C537.542,290.275,541.579,293.101,547.1,293.597z"/>
	<path fill="#F69E30" d="M259.658,457.34c-2.582-14.067-15.043-18.652-24.714-23.98c-9.471-5.218-20.259-12.449-32.846-6.521
		c-2.103,0.99-5.318-0.249-6.208,3.139c-0.768,2.924,0.955,4.945,2.847,6.904c5.109,5.288,10.811,10.179,14.918,16.22
		c3.295,4.847,11.764,9.616,3.596,17.485c8.586,11.604,20.119,19.881,30.832,29.087c2.566-12.416-9.019-16.06-14.133-23.549
		c-2.791-4.088-5.708-7.741-6.312-12.67c-0.879-7.17,3.017-11.707,8.668-15.221c5.729-3.563,8.896-0.078,11.794,4.144
		C250.977,456.568,255.407,456.666,259.658,457.34z"/>
	<path fill="#F69E30" d="M329.187,361.662c1.203,9.697,2.488,19.39,15.709,17.381c3.333-0.506,4.319,1.395,5.612,3.982
		c8.464,16.936,26.138,20.761,40.322,8.068c3.484-3.118,5.68-4.697,9.633-2.441c-5.409-8.397-11.205-16.449-18.876-22.843
		c-10.686,3.347-22.16,2.57-32.665,7.544c-3.214,1.521-6.839-0.495-6.438-6.525C342.935,360.019,336.162,357.704,329.187,361.662z"
		/>
	<path fill="#F08A23" d="M599.073,238.574c-3.633-3.518-9.548-4.992-11.035-0.461c-2.737,8.342-12.018,11.749-10.673,24.41
		c1.765,16.611,1.126,34.447-6.103,51.793c-2.606,6.253-11.686,21.284,2.437,29.49c2.619-0.769,6.132-2.76,5.461-4.875
		c-3.793-11.953,7.364-22.95,2.019-34.85c-0.647-1.442-0.893-4.324-0.084-5.043c11.913-10.591,5.292-26.159,10.147-38.701
		c2.002-5.171,2.868-9.251,9.233-7.741C600.008,247.922,599.541,243.248,599.073,238.574z"/>
	<path fill="#F69E30" d="M486.98,679.498c-9.244-5.655-18.524-11.411-27.58-17.188c-8.863-5.653-17.9-10.039-27.343-14.135
		c-3.241-1.406-5.915-3.823-9.083-0.189c15.422,14.584,32.231,27.362,49.121,40.037C477.508,686.033,483.035,684.257,486.98,679.498
		z"/>
	<path fill="#F69E30" d="M314.132,359.406c4.165,0.618,8.33,1.236,12.495,1.854c-2.64-5.833-5.28-11.666-7.92-17.498
		c-1.151-2.99-4.977-4.663-3.957-8.721c-0.424-3.703,5.722-6.413,1.612-10.673c-3.464-2.738-11.397-0.908-9.118-9.517
		c-2.492-4.372-4.301-9.268-8.721-12.155c-0.842-0.145-1.685-0.283-2.529-0.417c-1.967-0.214-3.934-0.427-5.901-0.641
		c0.615,2.026,1.23,4.051,1.842,6.073c0.204,0.474,0.371,0.967,0.498,1.476c0.487,1.473,0.974,2.947,1.456,4.413
		c-0.005-0.007,0.377,0.918,0.377,0.918c-0.201,0.553-0.033,0.927,0.503,1.119c0.482,0.929,0.965,1.859,1.448,2.789
		c1.07,3.148,2.139,6.295,3.204,9.438c-0.005-0.005,0.526,1.103,0.526,1.103c1.86,4.602,3.719,9.205,5.574,13.799
		c-0.005-0.008,0.16,0.275,0.16,0.275c-0.077,0.738,0.205,1.271,0.845,1.596c0.56,0.627,0.922,1.36,1.084,2.198
		C308.385,351.808,311.363,355.549,314.132,359.406z"/>
	<path fill="#F69E30" d="M401.486,390.553c-0.411,3.334-2.925,7.082-0.228,9.895c2.583,2.695,3.968-1.925,6.222-2.39
		C406.59,394.608,404.439,392.237,401.486,390.553z"/>
	<path fill="#F69E30" d="M257.121,507.182c1.378-7.121-3.476-7.149-8.037-7.515C250.58,503.517,254.061,505.109,257.121,507.182z"/>
	<path fill="#F9A634" d="M296.216,318.425c-0.483-0.93-0.966-1.86-1.448-2.789C295.251,316.566,295.734,317.496,296.216,318.425z"/>
	<path fill="#F9A634" d="M294.265,314.517c0,0-0.383-0.925-0.377-0.918c0.005,0.007-0.355,0.591-0.355,0.591L294.265,314.517z"/>
	<path fill="#F9A634" d="M292.431,309.186c-0.127-0.508-0.294-1.001-0.498-1.476c0.004,0.004-0.297,0.876-0.297,0.876
		L292.431,309.186z"/>
	<path fill="#F9A634" d="M307.61,346.833c-0.162-0.837-0.524-1.57-1.084-2.198C306.888,345.369,307.249,346.101,307.61,346.833z"/>
	<path fill="#F9A634" d="M305.681,343.039c0,0-0.165-0.282-0.16-0.275c0.005,0.008-0.43,0.154-0.43,0.154L305.681,343.039z"/>
	<path fill="#F9A634" d="M299.946,328.966c0,0-0.531-1.109-0.526-1.103c0.005,0.005-0.372,0.758-0.372,0.758L299.946,328.966z"/>
	<path fill="#70AF47" d="M433.794,821.26c-0.179,1.441-0.358,2.883-0.537,4.319c-0.134,5.087,2.043,6.232,4.543,1.765
		c5.233-9.347,16.756-10.228,22.464-18.913c1.731-2.635,4.58,0.997,7.035,0.95c0.807,0.013,1.614,0.048,2.422,0.107
		c-1.639-7.308-0.716-15.194-4.432-22.039c-7.304-6.546-10.673,2.587-9.859,5.046c4.682,14.151-6.001,15.622-13.713,20.248
		C438.553,814.641,436.405,818.366,433.794,821.26z"/>
	<path fill="#70AF47" d="M274.898,971.181c-8.792,0.312-11.868,7.259-15.153,13.962C270.25,986.818,274.066,980.732,274.898,971.181
		z"/>
	<path fill="#F4982C" d="M717.015,248.304c-2.806,11.314-5.612,22.628-8.418,33.942c9.346,1.032,19.137,1.755,13.828,16.12
		c-7.222,19.539-12.184,39.49-11.533,60.54c8.105,0.106,9.14-4.426,7.717-11.471c-1.932-9.572-2.201-18.782,8.509-24.049
		c1.521-0.748,3.122-3.899,2.854-5.614c-2.521-16.152,8.59-30.5,6.154-46.948c-0.38-2.564-3.473-12.29,5.44-13.899
		c0.926-0.167,2.173-1.626,2.351-2.648c1.252-7.196-12.393-21.68-20.011-21.421C721.608,238.005,719.312,243.154,717.015,248.304z"
		/>
	<path fill="#70AF47" d="M867.387,684.291c0.431-2.579,0.333-6.162,3.149-6.731c22.665-4.579,34.103-26.573,53.218-36.566
		c-3.75-9.85-8.396-4.618-12.327-0.323c-4.584,5.008-8.026,8.435-8.902-2.071c-0.28-3.358-3.084-3.717-5.745-4.057
		c-16.373-2.094-17.754-3.783-19.361-23.347c-15.951,1.996-31.212,8.822-47.604,7.664c-1.053,0.675-2.105,1.351-3.158,2.026
		c0,0-0.044-0.176-0.043-0.174c-0.24,3.459-1.678,6.711-5.132,6.753c-20.216,0.248-36.985,12.115-55.573,17.794
		c-5.1,1.558-13.172,0.647-11.192,10.793c0.398,2.042-2.611,2.996-3.832,2.09c-8.71-6.457-13.871-1.872-19.063,5.566
		c-2.36,3.38-7.191,2.512-10.982,2.896c-2.24,0.227-2.871-2.132-2.336-3.802c5.276-16.447-6.1-9.171-10.694-7.007
		c-6.233,2.937-12.653,3.903-18.841,3.86c-14.309-0.1-28.23,2.723-41.642,6.761c-10.873,3.273-19.387,1.887-28.312-4.308
		c-4.72-3.277-10.324-4.683-15.151,1.013c-2.98,3.516-7.025,5.893-11.332,6.114c-14.102,0.723-24.161,10.977-35.18,17.522
		c-20.389,12.112-36.738,30.385-57.257,43.297c-21.562,13.568-23.699,33.489-9.672,47.325c9.93-2.786,19.618,2.053,30.509-1.773
		c10.728-3.768,22.725-3.523,32.766-11.043c5.19-3.887,11.215-7.106,17.321-9.041c13.907-4.407,26.281-12.775,40.078-16.899
		c9.507-2.842,15.377-15.227,26.298-11.733c7.44,2.38,13.344,1,19.596-2.307c17.94-9.489,37.897-13.588,55.32-25.284
		c10.815-7.261,26.443-5.47,37.178-15.668c2.359,4.179,0.24,14.846,8.746,5.558c4.549-4.967,10.264-4.679,15.504-1.57
		c5.161,3.062,10.27,6.455,14.712,10.507c8.65,7.891,20.212,6.74,30.166,10.528c5.253,1.999,7.777-8.387,11.309-8.803
		c5.617-0.662,10.701-9.621,16.998-2.262C854.053,693.662,861.535,690.327,867.387,684.291z"/>
	<path fill="#559143" d="M846.926,697.586c-6.297-7.359-11.381,1.6-16.998,2.262c-3.532,0.416-6.056,10.803-11.309,8.803
		c-9.954-3.789-21.516-2.638-30.166-10.528c-4.442-4.052-9.551-7.444-14.712-10.507c-5.24-3.109-10.955-3.398-15.504,1.57
		c-8.506,9.289-6.387-1.379-8.746-5.558c-10.736,10.198-26.363,8.408-37.178,15.668c-17.422,11.696-37.38,15.795-55.32,25.284
		c-6.252,3.307-12.156,4.687-19.596,2.307c-10.921-3.494-16.792,8.891-26.298,11.733c-13.797,4.124-26.171,12.493-40.078,16.899
		c-6.105,1.935-12.131,5.154-17.321,9.041c-10.041,7.52-22.038,7.275-32.766,11.043c-10.892,3.826-20.579-1.014-30.508,1.774
		c-8.112,4.08-19.266-0.119-25.135,10.072c3.715,6.845,2.792,14.732,4.432,22.039c6.77,13.41,13.548,0.468,14.564-2.351
		c3.448-9.566,6.517-11.064,17.478-11.39c11.628-0.345,24.897-4.427,37.038-8.503c16.457-5.526,32.824-11.347,49.243-17.001
		c1.221-0.42,3.05-1.21,3.739-0.669c10.574,8.301,20.865-5.265,31.847-0.723c2.734,1.131,7.813-5.455,12.194-6.312
		c8.066-1.577,16.063-3.745,24.756-1.838c5.408,1.186,8.526,1.587,6.075,7.733c-1.764,4.425-0.264,7.174,3.51,8.333
		c4.033,1.239,10.028,3.997,12.313,0.929c8.361-11.226,20.856-11.784,31.832-13.01c15.033-1.678,28.422-6.981,42.001-12.803
		c7.392-3.169,16.664-1.421,22.798-3.791c17.545-6.78,33.955-17.845,47.706-31.051C833.447,710.673,841.691,705.618,846.926,697.586
		z"/>
	<path fill="#FBAC38" d="M501.916,613.271c9.803,8.291,12.859,21.436,20.594,31.462c3.838,4.974,9.539,8.553,12.166,14.577
		c1.794-0.669,3.586-1.341,5.379-2.015c0.391-8.732,9.02-12.096,11.776-20.097c5.164-14.988,13.017-29.158,29.801-34.269
		c6.462-1.968,9.205-7.69,11.757-13.514c2.003-4.572,4.137-9.237,10.457-7.147l0.002-0.001c0.851-8.604,3.673-15.83,9.172-23.045
		c10.998-14.432,18.004-31.21,22.922-49.027c2.436-8.825,2.118-18.212,6.893-26.623c21.448-37.777,35.522-78.788,49.624-119.8
		c4.015-11.676,0.681-16.93-10.861-17.43c-18.038,26.299-38.104,51.114-54.324,78.742c-0.749,0.824-1.497,1.649-2.246,2.473
		c-0.37,0.85-0.741,1.699-1.111,2.549c-0.518,3.585-1.036,7.17-1.554,10.755c-1.495,8.743-3.17,17.357-13.456,19.757
		c-0.266,1.773-0.533,3.546-0.799,5.319c4.979,6.345,4.701,12.68-0.217,19.007c-0.385,2.656-0.771,5.312-1.156,7.967
		c5.283,1.003,10.378,2.097,3.891,8.768c-6.37,13.282-5.879,28.46-13.149,42.028c-6.566,12.253-12.075,9.558-20.09,4.662
		c-8.01,3.165-12.301,8.697-13.459,17.917c-1.219,9.699-9.175,16.014-17.295,14.985c-20.227-2.564-34.196,3.392-40.967,24.18
		c-0.342,1.05-1.942,1.675-2.957,2.498C502.443,609.724,502.18,611.497,501.916,613.271z"/>
	<path fill="#F4982C" d="M743.74,421.048c0.679-10.499,7.859-18.776,9.517-28.94c5.476,1.745,8.943,0.442,8.843-6.27
		c-3.013-1.246-1.834-3.843-1.783-6.077c0.908-5.301,0.042-10.577-5.83-5.057c-10.625,9.988-19.621,21.814-30.103,31.985
		c-10.256,9.952-12.995,24.245-21.083,35.237c-6.281,8.537-16.786,13.416-20.061,24.794c-0.603,2.094-3.754,1.847-5.662,0.338
		c-3.3-2.611-3.848-6.211-1.269-9.355c6.094-7.428,3.559-18.047,9.68-25.562c2.421-2.972,0.252-5.832-3.395-6.757
		c-1.723,1.274-4.689,2.316-4.972,3.857c-2.63,14.324-12.658,27.239-8.171,42.946c0.699,2.446-0.805,4.201-2.987,5.269
		c-7.367,3.606-8.228,11.628-9.741,18.046c-2.098,8.905-5.089,16.408-10.624,23.881c-8.87,11.976-14.026,26.795-22.085,38.997
		c-5.384,8.153-8.836,20.282-20.168,23.889c0,0-0.002,0.001-0.002,0.001c-6.825,9.19-3.618,23.605-15.052,30.396
		c4.163,4.885,0.617,9.206-2.6,11.078c-9.495,5.524-10.872,15.032-13.226,24.271c27.591-6.87,55.597-11.054,83.695-14.651
		c0.893-6.165,1.785-12.326,2.677-18.487c-1.575-0.194-3.15-0.389-4.723-0.581c-1.41,1.707-2.511,4.17-4.296,4.968
		c-4.543,2.029-9.903,5.956-14.198,1.324c-4.306-4.645,0.409-8.898,2.973-12.928c32.824-51.591,65.318-103.383,91.447-159.039
		C734.874,439.394,739.338,430.236,743.74,421.048z"/>
	<path fill="#7FB762" d="M465.29,787.45c5.869-10.19,17.023-5.991,25.135-10.072c-14.028-13.837-11.892-33.758,9.671-47.326
		c20.519-12.911,36.868-31.185,57.257-43.297c11.018-6.545,21.078-16.799,35.18-17.522c4.307-0.221,8.352-2.598,11.332-6.114
		c4.827-5.696,10.431-4.289,15.151-1.013c8.924,6.195,17.439,7.581,28.312,4.308c13.412-4.038,27.333-6.861,41.642-6.761
		c6.188,0.043,12.608-0.923,18.841-3.86c4.594-2.165,15.971-9.44,10.694,7.007c-0.536,1.67,0.096,4.029,2.336,3.802
		c3.791-0.384,8.622,0.485,10.982-2.896c5.192-7.439,10.353-12.023,19.063-5.566c1.221,0.905,4.23-0.048,3.832-2.09
		c-1.98-10.145,6.092-9.234,11.192-10.793c18.587-5.679,35.357-17.546,55.573-17.794c3.455-0.042,4.892-3.295,5.132-6.753
		c-34.233,3.927-68.509,7.471-102.688,11.878c-50.639,6.531-101.064,14.552-149.416,32.716
		c-58.644,22.03-106.475,57.536-134.202,117.422c-5.622,12.144-9.537,24.8-6.514,38.528c2.609-2.889,4.758-6.615,7.922-8.512
		c7.712-4.626,18.395-6.097,13.713-20.248C454.618,790.037,457.986,780.904,465.29,787.45z"/>
	<path fill="#F9A634" d="M588.794,612.665c11.434-6.791,8.227-21.206,15.052-30.396c-6.319-2.09-8.454,2.575-10.457,7.147
		c-2.552,5.824-5.295,11.546-11.757,13.514c-16.784,5.111-24.637,19.281-29.801,34.269c-2.756,8-11.385,11.365-11.776,20.097
		c7.802-1.229,15.349-3.306,22.304-7.356c-2.452-22.502-1.987-23.269,17.55-32.094C583.006,616.447,585.838,614.408,588.794,612.665
		z"/>
	<path fill="#F69E30" d="M588.794,612.665c-2.955,1.743-5.787,3.782-8.885,5.181c-19.537,8.825-20.002,9.591-17.55,32.094
		c3.723,0.518,7.267-0.071,10.609-1.923c2.354-9.242,3.731-18.75,13.226-24.274C589.411,621.871,592.956,617.55,588.794,612.665z"/>
	<path fill="#7FB762" d="M826.658,620.885c1.052-0.676,2.105-1.351,3.158-2.026C828.274,618.712,827.099,619.181,826.658,620.885z"
		/>
	<path fill="#F9A634" d="M603.847,582.268c11.332-3.607,14.784-15.736,20.168-23.889c8.059-12.202,13.214-27.022,22.085-38.997
		c5.535-7.473,8.525-14.977,10.624-23.881c1.512-6.418,2.373-14.44,9.741-18.046c2.182-1.068,3.686-2.823,2.987-5.269
		c-4.487-15.707,5.54-28.622,8.171-42.946c0.283-1.541,3.25-2.583,4.972-3.857c0.261-1.755,0.521-3.511,0.78-5.267
		c1.581-4.617,1.935-10.548,4.986-13.591c7.735-7.715,4.715-22.236,16.726-26.771c0.273-1.76,0.547-3.52,0.82-5.281
		c-4.46-6.517,1.018-9.361,4.581-12.912c0.124-0.887,0.259-1.772,0.403-2.655c-0.65-21.05,4.312-41.001,11.533-60.54
		c5.309-14.365-4.481-15.088-13.828-16.12c-6.3,12.421-7.619,26.974-15.794,38.591c-1.285,9.63-9.147,16.231-11.205,25.505
		c11.542,0.5,14.876,5.754,10.861,17.431c-14.102,41.011-28.176,82.023-49.624,119.8c-4.775,8.411-4.457,17.798-6.893,26.623
		c-4.918,17.817-11.924,34.595-22.922,49.027C607.521,566.438,604.698,573.664,603.847,582.268z"/>
	<path fill="#F4982C" d="M705.086,379.754c-12.011,4.535-8.991,19.055-16.726,26.771c-3.051,3.043-3.405,8.974-4.986,13.591
		c8.776,3.02,6.29-5.39,8.541-8.983C698.002,401.419,702.67,391.08,705.086,379.754z"/>
	<path fill="#F4982C" d="M710.488,361.561c-3.564,3.551-9.041,6.395-4.581,12.912C714.44,372.759,713.025,367.367,710.488,361.561z"
		/>
	<path fill="#F69E30" d="M841.071,367.501c-0.998,0.802-1.898,2.079-3.008,2.333c-14.607,3.343-16.149,12.875-11.64,25.367
		c7.128,0.521,9.218-10.453,17.129-8.147c0.823,0.067,1.642,0.149,2.46,0.247l0.025-0.019c0.164-0.864,0.306-1.732,0.427-2.604
		c0.682-4.398,1.366-8.795,2.049-13.193C846.032,370.157,843.552,368.829,841.071,367.501z"/>
	<path fill="#F08A23" d="M848.513,371.486c-0.683,4.397-1.366,8.795-2.049,13.193c19.458-0.629,20.414-19.244,28.348-31.076
		c-9.446-5.7-10.251,8.066-17.092,8.235C853.187,363.563,855.564,372.323,848.513,371.486z"/>
	<path fill="#F08A23" d="M846.013,387.301c0.3,0.41,0.6,0.82,0.9,1.23c-0.02-0.24,0.044-0.556-0.08-0.704
		c-0.2-0.24-0.524-0.369-0.795-0.545C846.038,387.282,846.013,387.301,846.013,387.301z"/>
	<path fill="#2A6DC7" d="M874.491,443.178c0.138,0.4,0.277,0.8,0.416,1.2c-0.163-0.381-0.327-0.762-0.49-1.142
		C874.416,443.236,874.491,443.178,874.491,443.178z"/>
	<path fill="#F4982C" d="M430.223,213.556c1.66,18.765,6.138,37.144,16.618,52.171c6.412,9.193,6.742,15.272,0.445,23.259
		c-2,2.537-4.117,5.467-0.371,7.758c2.943,1.799,4.648-0.661,5.564-3.501c0.863-2.675,1.979-5.229,5.386-3.997
		c2.546,0.92,1.599,3.684,2.348,5.553c3.313,8.264-1.59,21.152,12.101,23.785c0.753,0.145,1.858,2.333,1.618,3.251
		c-5.275,20.119,9.751,36.544,8.945,55.892c-0.208,4.986,3.184,8.045,8.371,8.152c-6.626-17.947-3.546-37.858-11.114-56.171
		c-2.606-6.307,1.22-18.568,2.636-28.044c0.52-3.48,1.873-7.682-1.808-9.772c-17.041-9.678-16.719-29.661-25.403-44.016
		C448.392,236.029,442.13,222.174,430.223,213.556z"/>
	<path fill="#F4982C" d="M563.158,515.87c-7.803-3.18-2.513-12.407-7.231-17.012c-6.754,6.667-13.559,13.027-11.854,24.377
		c0.59,3.927-0.304,9.1-4.598,9.791c-9.251-15.572-0.714-36.26-15.525-49.742c-1.658,0.946-2.74,2.375-2.227,4.319
		c4.022,15.251,3.364,30.479,0.153,45.881c-1.725,8.273,3.821,12.342,10.303,14.566c7.169,2.459,13.225-0.842,18.189-6.077
		c2.046-2.158,3.244-5.173,4.827-7.798C557.849,528.073,560.504,521.971,563.158,515.87z"/>
	<path fill="#F4982C" d="M516.887,460.454c-1.672,7.92-1.074,14.737,7.837,17.519C523.367,471.524,523.656,464.277,516.887,460.454z
		"/>
	<path fill="#F9A634" d="M502.707,607.95c1.014-0.823,2.614-1.448,2.957-2.498c6.77-20.788,20.74-26.744,40.967-24.18
		c8.12,1.029,16.077-5.286,17.295-14.985c1.159-9.22,5.449-14.752,13.459-17.917c0.534-3.552,1.068-7.105,1.602-10.658
		c4.062-10.324,13.99-18.394,13.691-29.988c-0.184-7.148,3.468-10.969,6.307-15.935c0.291-6.022,3.27-8.289,8.907-6.845
		c4.918-6.326,5.195-12.662,0.216-19.007c-4.662,0.417-5.834,7.303-11.155,6.498c-1.459,2.462-2.918,4.924-4.378,7.386
		c3.885,9.635,1.373,15.055-9.378,15.043c-0.557,0.641-0.863,1.39-0.915,2.247c-0.768,0.867-1.535,1.734-2.303,2.602
		c-1.71,3.321-3.419,6.642-5.129,9.962c6.591,9.272-4.33,15.804-2.982,24.913c-3.487-2.394-3.096-7.315-7.321-7.306l0.021-0.027
		c0.91,15.13-13.161,22.573-17.169,35.18c-7.119-2.381-13.728,3.045-20.124,2.286c-6.792-0.806-11.594-4.804-14.487-13.93
		c-5.469-17.253-11.171-35.18-25.612-48.018c-3.927-3.49-4.634-10.934-6.671-16.404c-3.602-9.67-7.831-18.579-13.524-27.001
		c-2.69-3.979-4.571-8.629-1.231-13.683c1.94-2.935,0.698-6.212-0.243-9.077c-4.25-12.944-7.305-25.876-6.095-39.948
		c0.325-3.782-5.265-7.723-7.082-12.072c-3.552-8.502-1.671-18.202-0.375-26.348c1.329-8.351-1.335-14.369-2.95-21.399
		c-6.049-26.337-16.03-51.647-15.878-79.629c0.046-8.565-6.442-17.122-10.052-25.631c-0.75-1.767-2.494-2.7-4.205-1.691
		c-0.877,0.517-1.873,2.596-1.534,3.294c4.52,9.294-2.393,14.707-5.699,22.084c-4.916,10.97-3.037,23.787-1.295,35.556
		c1.527,10.318,2.66,20.752,7.36,30.693c3.39,7.171,2.544,16.511,3.617,24.801c1.937,14.965-0.001,30.677,2.298,44.43
		c4.301,25.735,13.204,51.16,24.641,75.077c4.889,10.223,6.262,20.754-2.407,30.239c0.484,2.786,0.968,5.571,1.451,8.357
		c18.233,4.804,19.803,21.199,23.399,36.185c-2.278,7.192,0.664,12.671,4.789,18.166c3.326,4.43,8.678,8.445,8.281,14.465
		C482.701,589.435,492.824,598.503,502.707,607.95z"/>
	<path fill="#114D9F" d="M574.85,509.676c1.71-3.321,3.419-6.642,5.129-9.962c0.768-0.867,1.535-1.735,2.303-2.602
		c0.053-0.856,0.358-1.605,0.915-2.247c2.539-5.401,4.951-10.886,9.378-15.043c1.459-2.462,2.918-4.924,4.378-7.386
		c2.361-5.646,5.034-11.082,9.666-15.201c1.257-4.88,4.224-8.647,7.517-12.201c2.327-5.623,5.306-10.794,9.781-14.927
		c0.37-0.85,0.741-1.699,1.111-2.549c0.749-0.824,1.497-1.649,2.246-2.474c16.219-27.628,36.286-52.443,54.324-78.742
		c2.059-9.274,9.92-15.875,11.205-25.505c-14.661-1.443-26.718,0.827-40.026,11.224c-10.574,8.261-19.996,16.549-28.378,26.892
		c-3.457,4.266-7.805,8.792-14.444,6.905c-5.858,7.734-7.123,17.294-8.465,26.283c-6.467,43.332-21.138,83.916-38.334,123.733
		c-2.653,6.096-5.307,12.198-7.961,18.299c0.061,1.265-0.21,2.687,0.258,3.758c0.751,1.717,1.695,0.724,2.379-0.322
		c2.253-3.447,4.492-6.903,6.736-10.356c0,0-0.022,0.027-0.022,0.028C566.884,520.737,569.99,514.665,574.85,509.676z"/>
	<path fill="#F08A23" d="M422.761,421.787c-1.714,9.681-0.023,18.383,6.685,25.643C432.076,437.486,427.576,429.591,422.761,421.787
		z"/>
	<path fill="#F4982C" d="M433.002,458.785c0.801,7.407,1.665,14.789,7.479,20.169C444.285,469.684,441.208,463.197,433.002,458.785z
		"/>
	<path fill="#F08A23" d="M419.594,407.759c0.723,1.031,1.445,2.062,2.168,3.093C421.039,409.821,420.317,408.79,419.594,407.759z"/>
	<path fill="#F08A23" d="M421.765,410.856c0.722,1.031,1.445,2.063,2.167,3.095C423.21,412.919,422.487,411.888,421.765,410.856z"/>
	<path fill="#F08A23" d="M423.565,416.45c-0.145,0.969-0.289,1.937-0.434,2.907C425.015,418.648,425.162,417.679,423.565,416.45z"/>
	<path fill="#F4982C" d="M502.707,607.95c-9.883-9.447-20.006-18.515-18.936-34.713c0.397-6.019-4.955-10.034-8.281-14.465
		c-4.125-5.495-7.066-10.974-4.788-18.166c-8.723,0.481-10.434-6.751-13.967-12.655c-3.204-5.354-1.07-14.937-10.679-15.544
		c0.561,1.928,1.123,3.855,1.684,5.784c4.91,18.081,12.53,35.294,15.719,53.925c8.168,0.511,13.012,3.614,11.289,13.436
		c-1.022,5.822,2.962,9.788,6.581,13.76c3.152,3.461,4.949,8.141,0.928,11.827c-3.221,2.952-8.627,1.912-10.574-1.222
		c-7.694-12.388-24.672-14.227-29.923-29.752c-2.453-7.254-12.414-5.81-18.628-9.776c-11.143-7.113-15.839-24.232-32.361-22.706
		c-0.539,3.569-1.474,8.463,2.08,9.645c11.126,3.7,16.411,14.852,25.015,20.422c19.833,12.838,35.015,30.695,52.136,46.311
		c8.911,8.129,19.895,7.257,29.025,12.633c2.028,1.194,4.126-0.637,4.802-3.084c0.78-2.823,0.07-4.917-2.478-6.773
		c-6.256-4.557-10.461-9.432,0.567-13.566C502.18,611.497,502.443,609.724,502.707,607.95z"/>
	<path fill="#F4982C" d="M403.618,585.012c1.472,3.54-13.284,8.767,0.965,10.979c9.079,1.397,11.104,11.876,18.628,15.377
		c2.386,1.11,4.117,5.968,7.123,1.52c1.865-2.76,0.514-5.227-1.904-8.042C421.312,596.56,413.474,589.526,403.618,585.012z"/>
	<path fill="#F69E30" d="M280.799,474.117c-0.512-12.317-10.195-13.564-18.582-16.377
		C265.041,467.267,274.297,469.03,280.799,474.117z"/>
	<path fill="#F69E30" d="M285.165,480.199c0.421-3.47-1.021-5.505-4.362-6.077C280.381,477.593,281.837,479.617,285.165,480.199z"/>
	<path fill="#F69E30" d="M559.987,260.157c-1.969,0.092-3.937,0.183-5.906,0.275c0.353,1.056,0.403,2.663,1.111,3.074
		c3.426,1.991,3.975-0.99,4.804-3.336C559.997,260.171,559.987,260.157,559.987,260.157z"/>
	<path fill="#F9A634" d="M307.243,314.851c-2.279,8.61,5.654,6.779,9.118,9.517C317.006,317.429,312.826,315.423,307.243,314.851z"
		/>
	<path fill="#F9A634" d="M314.749,335.041c-1.02,4.058,2.807,5.731,3.957,8.721C325.435,336.895,319.94,336.043,314.749,335.041z"/>
	<path fill="#F9A634" d="M295.993,302.279c0.844,0.133,1.688,0.272,2.529,0.417C297.982,300.704,297.132,300.608,295.993,302.279z"
		/>
	<path fill="#F69E30" d="M446.055,512.407c9.609,0.607,7.475,10.19,10.679,15.544c3.534,5.904,5.244,13.136,13.967,12.655
		c-3.596-14.986-5.167-31.382-23.399-36.185C446.888,507.083,446.471,509.745,446.055,512.407z"/>
	<path fill="#F69E30" d="M578.986,537.713c-0.534,3.553-1.068,7.105-1.602,10.658c8.016,4.896,13.525,7.59,20.091-4.662
		c7.271-13.568,6.779-28.746,13.15-42.028c-1.297-2.923-2.594-5.845-3.891-8.768c0.385-2.656,0.771-5.312,1.156-7.967
		c-5.637-1.445-8.616,0.822-8.907,6.845c7.029,14.213-0.086,26.219-5.673,38.667C590.216,537.351,585.896,539.852,578.986,537.713z"
		/>
	<path fill="#F9A634" d="M614.135,445.034c-3.293,3.554-6.261,7.32-7.517,12.201c0.763,1.128,1.525,2.256,2.288,3.384
		c10.286-2.4,11.961-11.014,13.457-19.757C619.62,442.253,616.878,443.644,614.135,445.034z"/>
	<path fill="#F69E30" d="M608.906,460.619c-0.763-1.128-1.525-2.256-2.288-3.384c-4.632,4.119-7.305,9.555-9.666,15.201
		c5.321,0.805,6.493-6.082,11.155-6.498C608.373,464.165,608.64,462.392,608.906,460.619z"/>
	<path fill="#F69E30" d="M614.135,445.034c2.743-1.391,5.485-2.781,8.228-4.172c0.518-3.585,1.036-7.17,1.554-10.755
		C619.441,434.241,616.462,439.411,614.135,445.034z"/>
	<path fill="#F9A634" d="M606.734,492.912c1.297,2.923,2.594,5.845,3.891,8.768C617.112,495.01,612.017,493.916,606.734,492.912z"/>
	<path fill="#F69E30" d="M627.273,425.085c-0.749,0.825-1.497,1.649-2.246,2.474C625.776,426.734,626.525,425.909,627.273,425.085z"
		/>
	<path fill="#F08A23" d="M578.986,537.713c6.909,2.139,11.229-0.362,14.324-7.256c5.587-12.448,12.703-24.454,5.673-38.667
		c-2.839,4.966-6.491,8.787-6.307,15.935C592.976,519.319,583.048,527.389,578.986,537.713z"/>
	<path fill="#F69E30" d="M574.85,509.676c-4.859,4.989-7.965,11.061-10.303,17.607c4.224-0.009,3.834,4.912,7.321,7.306
		C570.52,525.481,581.441,518.948,574.85,509.676z"/>
	<path fill="#F69E30" d="M592.575,479.822c-4.427,4.157-6.838,9.642-9.378,15.043C593.948,494.877,596.459,489.457,592.575,479.822z
		"/>
	<path fill="#F69E30" d="M582.282,497.112c-0.768,0.867-1.535,1.735-2.303,2.602C580.746,498.846,581.514,497.979,582.282,497.112z"
		/>
</g>
</svg>
